<svg xmlns="http://www.w3.org/2000/svg" viewBox="0 0 100 100" role="img" aria-label="기술">
  <rect width="100" height="100" fill="#3B2E82"/>
  <rect width="100" height="100" fill="url(#tg)"/>
  <defs><linearGradient id="tg" x1="0" y1="0" x2="0" y2="1">
    <stop offset="0" stop-color="#5B49C0"/><stop offset="1" stop-color="#2E2364"/>
  </linearGradient></defs>
  <rect x="34" y="34" width="32" height="32" rx="5" fill="#EBE7FF"/>
  <rect x="42" y="42" width="16" height="16" rx="3" fill="#7C6BE0"/>
  <g stroke="#C9C0FF" stroke-width="3.4" stroke-linecap="round">
    <line x1="42" y1="26" x2="42" y2="34"/><line x1="50" y1="26" x2="50" y2="34"/><line x1="58" y1="26" x2="58" y2="34"/>
    <line x1="42" y1="66" x2="42" y2="74"/><line x1="50" y1="66" x2="50" y2="74"/><line x1="58" y1="66" x2="58" y2="74"/>
    <line x1="26" y1="42" x2="34" y2="42"/><line x1="26" y1="50" x2="34" y2="50"/><line x1="26" y1="58" x2="34" y2="58"/>
    <line x1="66" y1="42" x2="74" y2="42"/><line x1="66" y1="50" x2="74" y2="50"/><line x1="66" y1="58" x2="74" y2="58"/>
  </g>
</svg>
